<svg xmlns="http://www.w3.org/2000/svg" width="48" height="48" viewBox="0 0 48 48">
  <g id="Grupo_30" data-name="Grupo 30" transform="translate(-160 -493)">
    <rect id="Retângulo_39" data-name="Retângulo 39" width="48" height="48" transform="translate(160 493)" fill="#ed1c24"/>
    <g id="linkedin_1_" data-name="linkedin (1)" transform="translate(172 505)">
      <path id="Caminho_65" data-name="Caminho 65" d="M23.994,24H24V15.2c0-4.306-.927-7.623-5.961-7.623a5.226,5.226,0,0,0-4.707,2.587h-.07V7.976H8.489V24h4.97V16.065c0-2.089.4-4.109,2.983-4.109,2.549,0,2.587,2.384,2.587,4.243V24Z" fill="#fff"/>
      <path id="Caminho_66" data-name="Caminho 66" d="M.4,7.977H5.372V24H.4Z" fill="#fff"/>
      <path id="Caminho_67" data-name="Caminho 67" d="M2.882,0A2.9,2.9,0,1,0,5.764,2.882,2.883,2.883,0,0,0,2.882,0Z" fill="#fff"/>
    </g>
  </g>
</svg>
