<svg xmlns="http://www.w3.org/2000/svg" xmlns:xlink="http://www.w3.org/1999/xlink" width="201.543" height="82.231" viewBox="0 0 201.543 82.231">
  <defs>
    <clipPath id="clip-path">
      <rect id="Retângulo_4" data-name="Retângulo 4" width="201.543" height="82.231" transform="translate(0 0)" fill="none"/>
    </clipPath>
  </defs>
  <g id="Grupo_17" data-name="Grupo 17" transform="translate(0 0)">
    <path id="Caminho_4" data-name="Caminho 4" d="M200.258,54.684v2.485H183.55V55.227l12.566-15.566H183.55V37.177h16.337v1.942L187.377,54.684Z" fill="#fff"/>
    <rect id="Retângulo_3" data-name="Retângulo 3" width="2.858" height="19.955" transform="translate(138.333 2.958)" fill="#fff"/>
    <path id="Caminho_5" data-name="Caminho 5" d="M153.311,5.438h-6.86V2.958H163V5.438h-6.861V22.913h-2.83Z" fill="#fff"/>
    <g id="Grupo_4" data-name="Grupo 4">
      <g id="Grupo_3" data-name="Grupo 3" clip-path="url(#clip-path)">
        <path id="Caminho_6" data-name="Caminho 6" d="M189.437,22.266a8.969,8.969,0,0,1-3.3-1.815l1.058-2.23a8.739,8.739,0,0,0,2.931,1.672,10.753,10.753,0,0,0,3.673.643,6.618,6.618,0,0,0,3.716-.843,2.6,2.6,0,0,0,1.229-2.244,2.212,2.212,0,0,0-.672-1.673,4.5,4.5,0,0,0-1.658-.986q-.985-.342-2.787-.771a28.7,28.7,0,0,1-3.645-1.086,6.024,6.024,0,0,1-2.373-1.673,4.469,4.469,0,0,1-.986-3.044,5.156,5.156,0,0,1,.843-2.888,5.79,5.79,0,0,1,2.559-2.058,10.384,10.384,0,0,1,4.259-.772,13.528,13.528,0,0,1,3.488.457,9.282,9.282,0,0,1,2.944,1.315l-.943,2.287a10.388,10.388,0,0,0-2.688-1.215,10.031,10.031,0,0,0-2.8-.414,6.174,6.174,0,0,0-3.644.886A2.716,2.716,0,0,0,189.423,8.1a2.19,2.19,0,0,0,.685,1.673,4.773,4.773,0,0,0,1.7,1,26.181,26.181,0,0,0,2.758.757,28.088,28.088,0,0,1,3.631,1.087,6.1,6.1,0,0,1,2.358,1.658,4.362,4.362,0,0,1,.986,3,5.114,5.114,0,0,1-.856,2.873,5.746,5.746,0,0,1-2.6,2.059,10.764,10.764,0,0,1-4.288.757,13.7,13.7,0,0,1-4.36-.7" fill="#fff"/>
      </g>
    </g>
    <path id="Caminho_7" data-name="Caminho 7" d="M78.645,2.9V5.39H91.539V2.9Z" fill="#fff"/>
    <path id="Caminho_8" data-name="Caminho 8" d="M81.5,14.824H91.539V12.365H78.646V22.914H81.5Z" fill="#fff"/>
    <path id="Caminho_9" data-name="Caminho 9" d="M91.519,39.665V37.18H78.637v2.484H91.519Z" fill="#fff"/>
    <path id="Caminho_10" data-name="Caminho 10" d="M78.638,46.634V57.173h2.856V49.09H91.519V46.633H78.638Z" fill="#fff"/>
    <path id="Caminho_11" data-name="Caminho 11" d="M80.965,76.4l1.327,3.077H79.648ZM80.331,75.1l-3.167,7.038h1.348l.693-1.629h3.519l.7,1.629h1.367L81.618,75.1Z" fill="#fff"/>
    <g id="Grupo_6" data-name="Grupo 6">
      <g id="Grupo_5" data-name="Grupo 5" clip-path="url(#clip-path)">
        <path id="Caminho_12" data-name="Caminho 12" d="M95.341,81.026a2.982,2.982,0,0,0,1.362-.3,2.107,2.107,0,0,0,.9-.844,2.711,2.711,0,0,0,0-2.544,2.119,2.119,0,0,0-.9-.844,2.982,2.982,0,0,0-1.362-.3H93.632v4.826ZM92.325,75.1H95.4a4.408,4.408,0,0,1,2,.437,3.241,3.241,0,0,1,1.357,1.237,3.767,3.767,0,0,1,0,3.689A3.235,3.235,0,0,1,97.4,81.694a4.4,4.4,0,0,1-2,.438H92.325Z" fill="#fff"/>
      </g>
    </g>
    <path id="Caminho_13" data-name="Caminho 13" d="M112.17,75.094l-2.362,5.429-2.343-5.429h-1.417l3.076,7.037h1.286l3.067-7.037Z" fill="#fff"/>
    <g id="Grupo_8" data-name="Grupo 8">
      <g id="Grupo_7" data-name="Grupo 7" clip-path="url(#clip-path)">
        <path id="Caminho_14" data-name="Caminho 14" d="M125.34,80.768a2.283,2.283,0,0,0,.884-.884,2.673,2.673,0,0,0,0-2.544,2.29,2.29,0,0,0-.884-.884,2.69,2.69,0,0,0-2.534,0,2.286,2.286,0,0,0-.884.885,2.671,2.671,0,0,0,0,2.543,2.286,2.286,0,0,0,.884.885,2.687,2.687,0,0,0,2.534,0m-3.207,1a3.457,3.457,0,0,1-1.357-1.3,3.736,3.736,0,0,1,0-3.71,3.454,3.454,0,0,1,1.357-1.3,4.255,4.255,0,0,1,3.88,0,3.463,3.463,0,0,1,1.357,1.291,3.759,3.759,0,0,1,0,3.72,3.475,3.475,0,0,1-1.358,1.292,4.263,4.263,0,0,1-3.88,0" fill="#fff"/>
        <path id="Caminho_15" data-name="Caminho 15" d="M140.691,78.532h1.237v2.805a3.929,3.929,0,0,1-1.267.663,4.86,4.86,0,0,1-1.488.231,4.007,4.007,0,0,1-1.94-.467,3.472,3.472,0,0,1-1.357-1.292,3.753,3.753,0,0,1,0-3.719,3.452,3.452,0,0,1,1.362-1.292,4.058,4.058,0,0,1,1.955-.468,4.26,4.26,0,0,1,1.609.292,3.154,3.154,0,0,1,1.216.854l-.824.8a2.646,2.646,0,0,0-1.94-.8,2.732,2.732,0,0,0-1.322.312,2.268,2.268,0,0,0-.905.875,2.512,2.512,0,0,0-.327,1.286,2.476,2.476,0,0,0,.327,1.267,2.34,2.34,0,0,0,.905.885,2.654,2.654,0,0,0,1.312.322,2.839,2.839,0,0,0,1.447-.363Z" fill="#fff"/>
      </g>
    </g>
    <path id="Caminho_16" data-name="Caminho 16" d="M153.086,76.4l1.328,3.077H151.77Zm-.633-1.306-3.167,7.037h1.348l.693-1.629h3.519l.7,1.629h1.367l-3.177-7.038Z" fill="#fff"/>
    <g id="Grupo_10" data-name="Grupo 10">
      <g id="Grupo_9" data-name="Grupo 9" clip-path="url(#clip-path)">
        <path id="Caminho_17" data-name="Caminho 17" d="M167.462,81.024a3,3,0,0,0,1.362-.3,2.115,2.115,0,0,0,.9-.845,2.709,2.709,0,0,0,0-2.543,2.115,2.115,0,0,0-.9-.845,3,3,0,0,0-1.362-.3h-1.709v4.826Zm-3.016-5.932h3.077a4.421,4.421,0,0,1,2,.437,3.235,3.235,0,0,1,1.357,1.237,3.763,3.763,0,0,1,0,3.689,3.235,3.235,0,0,1-1.357,1.237,4.421,4.421,0,0,1-2,.437h-3.077Z" fill="#fff"/>
        <path id="Caminho_18" data-name="Caminho 18" d="M183.94,80.766a2.286,2.286,0,0,0,.885-.884,2.67,2.67,0,0,0,0-2.544,2.29,2.29,0,0,0-.884-.884,2.689,2.689,0,0,0-2.533,0,2.281,2.281,0,0,0-.885.885,2.671,2.671,0,0,0,0,2.543,2.288,2.288,0,0,0,.885.885,2.685,2.685,0,0,0,2.533,0m-3.207,1a3.463,3.463,0,0,1-1.357-1.3,3.736,3.736,0,0,1,0-3.71,3.461,3.461,0,0,1,1.357-1.3,4.255,4.255,0,0,1,3.88,0,3.472,3.472,0,0,1,1.358,1.291,3.762,3.762,0,0,1,0,3.72,3.479,3.479,0,0,1-1.357,1.292,4.265,4.265,0,0,1-3.881,0" fill="#fff"/>
        <path id="Caminho_19" data-name="Caminho 19" d="M195.094,82a3.267,3.267,0,0,1-1.2-.613l.452-1.015a3.556,3.556,0,0,0,1.061.557,3.827,3.827,0,0,0,1.261.217,2.18,2.18,0,0,0,1.172-.252.762.762,0,0,0,.386-.663.646.646,0,0,0-.215-.5,1.531,1.531,0,0,0-.549-.307c-.221-.073-.522-.157-.9-.251a10.377,10.377,0,0,1-1.3-.382,2.144,2.144,0,0,1-.855-.6,1.611,1.611,0,0,1-.357-1.1,1.878,1.878,0,0,1,.317-1.06,2.131,2.131,0,0,1,.955-.759,3.858,3.858,0,0,1,1.563-.282,5.065,5.065,0,0,1,1.267.161,3.492,3.492,0,0,1,1.075.462l-.412,1.015a4.063,4.063,0,0,0-.965-.411,3.6,3.6,0,0,0-.975-.141,2.041,2.041,0,0,0-1.151.261.808.808,0,0,0-.377.694.626.626,0,0,0,.216.492,1.557,1.557,0,0,0,.548.3c.221.074.523.157.9.251a9.664,9.664,0,0,1,1.287.377,2.207,2.207,0,0,1,.859.6,1.576,1.576,0,0,1,.357,1.086,1.857,1.857,0,0,1-.316,1.056,2.15,2.15,0,0,1-.961.753,3.9,3.9,0,0,1-1.568.282A5.371,5.371,0,0,1,195.094,82" fill="#fff"/>
        <path id="Caminho_20" data-name="Caminho 20" d="M99.649,16.83H104.6q.458,0,1.259-.058l4.323,6.155h3.121L108.552,16.2a6.471,6.471,0,0,0,3.264-2.375,6.707,6.707,0,0,0,1.145-3.951,6.314,6.314,0,0,0-2.233-5.125,9.29,9.29,0,0,0-6.127-1.86H96.786V5.377h3.366v0h4.364a6.462,6.462,0,0,1,4.151,1.159A4.044,4.044,0,0,1,110.1,9.873a4.084,4.084,0,0,1-1.431,3.349,6.4,6.4,0,0,1-4.151,1.174h-7.73v8.532h2.862Z" fill="#fff"/>
      </g>
    </g>
    <path id="Caminho_21" data-name="Caminho 21" d="M121.831,14.023l11.27,0V11.588l-11.679,0h-2.9V14.02l3.314,0Z" fill="#fff"/>
    <path id="Caminho_22" data-name="Caminho 22" d="M121.832,20.494h-3.278v2.434H133.1l.007-2.436H121.832Z" fill="#fff"/>
    <path id="Caminho_23" data-name="Caminho 23" d="M133.1,5.428V2.938l-14.542.007v2.49h3.188Z" fill="#fff"/>
    <path id="Caminho_24" data-name="Caminho 24" d="M100.05,48.266l11.27,0V45.831l-11.679,0h-2.9v2.433h3.314Z" fill="#fff"/>
    <path id="Caminho_25" data-name="Caminho 25" d="M100.051,54.737H96.773v2.434h14.543l.007-2.436H100.051Z" fill="#fff"/>
    <path id="Caminho_26" data-name="Caminho 26" d="M111.32,39.671v-2.49l-14.542.007v2.49h3.188Z" fill="#fff"/>
    <path id="Caminho_27" data-name="Caminho 27" d="M168.663,15.682h0l.087-.2Z" fill="#fff"/>
    <path id="Caminho_28" data-name="Caminho 28" d="M174.417,2.943h-2.834L162.5,22.927h2.95l2.21-4.955,1-2.29-1.05,2.4,1.05-2.4.089-.2.044-.1-.044.1,4.232-9.616,4.324,9.819h0l1,2.29,2.2,5.01h3.006Z" fill="#fff"/>
    <path id="Caminho_29" data-name="Caminho 29" d="M164.767,49.893h0l.089-.2Z" fill="#fff"/>
    <path id="Caminho_30" data-name="Caminho 30" d="M170.52,37.154h-2.834l-9.081,19.984h2.949l2.211-4.955,1-2.29-1.05,2.4,1.05-2.4h0l.089-.2.044-.1-.044.1,4.233-9.616,4.323,9.819,1,2.29h0l2.2,5.01h3Z" fill="#fff"/>
    <g id="Grupo_12" data-name="Grupo 12">
      <g id="Grupo_11" data-name="Grupo 11" clip-path="url(#clip-path)">
        <path id="Caminho_31" data-name="Caminho 31" d="M119.989,51.1h4.953c.3,0,.725-.02,1.259-.058l4.323,6.155h3.121l-4.753-6.728a6.471,6.471,0,0,0,3.264-2.375,6.707,6.707,0,0,0,1.145-3.951,6.314,6.314,0,0,0-2.233-5.125,9.291,9.291,0,0,0-6.127-1.86h-7.815v2.489h3.366v0h4.363a6.46,6.46,0,0,1,4.151,1.159,4.042,4.042,0,0,1,1.432,3.335,4.084,4.084,0,0,1-1.431,3.349,6.4,6.4,0,0,1-4.151,1.174h-7.73V57.2h2.862Z" fill="#fff"/>
        <path id="Caminho_32" data-name="Caminho 32" d="M141.724,51.1h4.952q.458,0,1.26-.058l4.323,6.155h3.121l-4.753-6.728a6.471,6.471,0,0,0,3.264-2.375,6.716,6.716,0,0,0,1.145-3.951,6.312,6.312,0,0,0-2.234-5.125,9.287,9.287,0,0,0-6.126-1.86h-7.815v2.489h3.366v0h4.363a6.466,6.466,0,0,1,4.151,1.158,4.048,4.048,0,0,1,1.432,3.336,4.087,4.087,0,0,1-1.431,3.349,6.4,6.4,0,0,1-4.151,1.174h-7.73v8.532h2.863Z" fill="#fff"/>
      </g>
    </g>
    <rect id="Retângulo_9" data-name="Retângulo 9" width="57.61" height="57.61" transform="translate(0 0)" fill="#ed1c24"/>
    <path id="Caminho_33" data-name="Caminho 33" d="M26.826,23.559l-2.642,0v9.428h2.642V25.894h6.868V23.56H26.826Z" fill="#fff"/>
    <path id="Caminho_34" data-name="Caminho 34" d="M20.782,13.452V11.139H11.273v2.313h9.509Z" fill="#fff"/>
    <path id="Caminho_35" data-name="Caminho 35" d="M43.3,41.747h-3.22l3.295,4.724H46.6Z" fill="#fff"/>
    <g id="Grupo_14" data-name="Grupo 14">
      <g id="Grupo_13" data-name="Grupo 13" clip-path="url(#clip-path)">
        <path id="Caminho_36" data-name="Caminho 36" d="M43.261,35.487H46.3a5.34,5.34,0,0,0-.806-2.5c-.025-.039-.054-.077-.081-.116l-.015-.022a5.367,5.367,0,0,0-2.292-1.847,8.575,8.575,0,0,0-3.081-.677v2.558a4.078,4.078,0,0,1,2.261.8,2.726,2.726,0,0,1,.973,1.8" fill="#fff"/>
        <path id="Caminho_37" data-name="Caminho 37" d="M42.156,16.373a5.1,5.1,0,0,1,2-1.971A5.778,5.778,0,0,1,46.6,13.71V11.139a8.771,8.771,0,0,0-3.988,1.037,7.781,7.781,0,0,0-3.027,2.891,7.69,7.69,0,0,0-1,2.839h2.985a5.361,5.361,0,0,1,.583-1.533" fill="#fff"/>
      </g>
    </g>
    <path id="Caminho_38" data-name="Caminho 38" d="M11.006,44.107v2.364h3.031V44.107H11.006Z" fill="#fff"/>
    <g id="Grupo_16" data-name="Grupo 16">
      <g id="Grupo_15" data-name="Grupo 15" clip-path="url(#clip-path)">
        <path id="Caminho_39" data-name="Caminho 39" d="M21.208,39.636a3.742,3.742,0,0,0-1.129-1.271,7.518,7.518,0,0,0-4.454-1.13H11.006v2.4H12.5v-.023h2.8c.2,0,.39.009.573.023a3.85,3.85,0,0,1,1.864.548,2,2,0,0,1,.377.327,1.764,1.764,0,0,1,.378.647h3.142a3.97,3.97,0,0,0-.14-.819,3.483,3.483,0,0,0-.284-.7" fill="#fff"/>
      </g>
    </g>
  </g>
</svg>
